# xmcd CD database file
#
# Track frame offsets:
#	150
#	6942
#	11436
#	20016
#	30358
#	38505
#	49240
#	60272
#	90318
#	111290
#	120583
#	132342
#	140692
#	153257
#	159280
#	182268
#	200967
#	213091
#	224176
#	239640
#	252297
#	272617
#
# Disc length: 3648 seconds
#
# Revision: 0
# Processed by: cddbd v1.5.2PL0 Copyright (c) Steve Scherf et al.
# Submitted via: CDex 1.51
#
DISCID=2b0e3e16
DTITLE=Disneyland Band - Disney's Jazz Album ~Big Band and Swing~
DYEAR=2007
DGENRE=Jazz
TTITLE0=It's a Small World
TTITLE1=King Mickey (Mickey Mouse March)
TTITLE2=Walt Disney Medley - Walt Disney World Band
TTITLE3=Heigh-Ho - Mary Martin with Tutti Camarata(tp.) and His Orchestra
TTITLE4=I'm Late - Mary Martin with Tutti Camarata(tp.) and His Orchestra
TTITLE5=Zip-A-Dee-Doo-Dah
TTITLE6=The Bare Necessities
TTITLE7=Chim Chim Cher-ee
TTITLE8=I Wan'na Be Like You(The Monkey Song)
TTITLE9=Ev'rybody Wants To Be A Cat
TTITLE10=Thomas O'Malley Cat
TTITLE11=When I See An Elephant Fly
TTITLE12=Bibbidi-Bobbidi-Boo(The Magic Song) - Mary Martin with Tutti Camarata(tp.) and His Orchestra
TTITLE13=Following the Leader(Tee Dum, Tee Dee)
TTITLE14=Cruella De Vil
TTITLE15=A Spoonful Of Sugar
TTITLE16=Bella Notte
TTITLE17=He's A Tramp
TTITLE18=Some Day My Prince Will Come - Mary Martin with Tutti Camarata(tp.) and His Orchestra
TTITLE19=One Song - Mary Martin with Tutti Camarata(tp.) and His Orchestra
TTITLE20=When You Wish Upon A Star
TTITLE21=Disney's Jazz Album Track.22
EXTD=YEAR: 2007
EXTT0=
EXTT1=
EXTT2=
EXTT3=
EXTT4=
EXTT5=
EXTT6=
EXTT7=
EXTT8=
EXTT9=
EXTT10=
EXTT11=
EXTT12=
EXTT13=
EXTT14=
EXTT15=
EXTT16=
EXTT17=
EXTT18=
EXTT19=
EXTT20=
EXTT21=
PLAYORDER=
